<?xml version="1.0" encoding="UTF-8" standalone="no"?>
<!DOCTYPE svg PUBLIC "-//W3C//DTD SVG 1.0//EN"
 "http://www.w3.org/TR/2001/REC-SVG-20010904/DTD/svg10.dtd">
<!-- Generated by dot version 1.8.5 (Mon Jan 27 00:49:01 CET 2003)
     For user: (janson) james anderson   Title: Email    Pages: 1 -->
<svg width="464px" height="274px"
 xmlns="http://www.w3.org/2000/svg">
<g id="graph0" class="graph" style="font-family:Times-Roman;font-size:14.00">
<title>Email</title>
<g id="node1" class="node"><title>Email</title>
<ellipse cx="228" cy="29" rx="31" ry="18" style="fill:none;stroke:black"/>
<text text-anchor="middle" x="228" y="34">Email</text>
</g>
<g id="node2" class="node"><title>Recipient</title>
<ellipse cx="54" cy="101" rx="43" ry="18" style="fill:none;stroke:black"/>
<text text-anchor="middle" x="54" y="106">Recipient</text>
</g>
<g id="edge2" class="edge"><title>Email-&gt;Recipient</title>
<path style="fill:none;stroke:black" d="M203,39C173,51 125,71 92,85"/>
<polygon style="fill:black;stroke:black" points="93,82 85,88 95,86 93,82"/>
</g>
<g id="node4" class="node"><title>Sender</title>
<ellipse cx="149" cy="101" rx="34" ry="18" style="fill:none;stroke:black"/>
<text text-anchor="middle" x="149" y="106">Sender</text>
</g>
<g id="edge4" class="edge"><title>Email-&gt;Sender</title>
<path style="fill:none;stroke:black" d="M211,44C200,54 185,68 173,79"/>
<polygon style="fill:black;stroke:black" points="172,77 166,85 175,80 172,77"/>
</g>
<g id="node6" class="node"><title>Date</title>
<ellipse cx="228" cy="101" rx="27" ry="18" style="fill:none;stroke:black"/>
<text text-anchor="middle" x="228" y="106">Date</text>
</g>
<g id="edge6" class="edge"><title>Email-&gt;Date</title>
<path style="fill:none;stroke:black" d="M228,47C228,55 228,64 228,73"/>
<polygon style="fill:black;stroke:black" points="226,73 228,83 231,73 226,73"/>
</g>
<g id="node8" class="node"><title>Subject</title>
<ellipse cx="309" cy="101" rx="36" ry="18" style="fill:none;stroke:black"/>
<text text-anchor="middle" x="309" y="106">Subject</text>
</g>
<g id="edge8" class="edge"><title>Email-&gt;Subject</title>
<path style="fill:none;stroke:black" d="M245,44C257,54 272,68 284,79"/>
<polygon style="fill:black;stroke:black" points="282,80 291,85 285,77 282,80"/>
</g>
<g id="node10" class="node"><title>TextBody</title>
<ellipse cx="408" cy="101" rx="45" ry="18" style="fill:none;stroke:black"/>
<text text-anchor="middle" x="408" y="106">TextBody</text>
</g>
<g id="edge14" class="edge"><title>Email-&gt;TextBody</title>
<path style="fill:none;stroke:black" d="M254,39C284,51 335,71 369,85"/>
<polygon style="fill:black;stroke:black" points="366,86 376,88 368,82 366,86"/>
</g>
<g id="node11" class="node"><title>p</title>
<ellipse cx="408" cy="173" rx="27" ry="18" style="fill:none;stroke:black"/>
<text text-anchor="middle" x="408" y="178">p</text>
</g>
<g id="edge12" class="edge"><title>TextBody-&gt;p</title>
<path style="fill:none;stroke:black" d="M408,119C408,127 408,136 408,145"/>
<polygon style="fill:black;stroke:black" points="406,145 408,155 411,145 406,145"/>
</g>
<g id="node12" class="node"><title>Name</title>
<ellipse cx="408" cy="245" rx="32" ry="18" style="fill:none;stroke:black"/>
<text text-anchor="middle" x="408" y="250">Name</text>
</g>
<g id="edge10" class="edge"><title>p-&gt;Name</title>
<path style="fill:none;stroke:black" d="M408,191C408,199 408,208 408,217"/>
<polygon style="fill:black;stroke:black" points="406,217 408,227 411,217 406,217"/>
</g>
</g>
</svg>
